<?xml version="1.0" encoding="UTF-8"?> <svg xmlns="http://www.w3.org/2000/svg" width="426" height="341" viewBox="0 0 426 341"><defs><style> .cls-1 { fill: #ef3e35; fill-rule: evenodd; } </style></defs><path class="cls-1" d="M122.477,31.968h31.949a15.984,15.984,0,0,0,0-31.967H122.477C54.934,0,0,54.989,0,122.547V282.388A58.642,58.642,0,0,0,58.578,341h53.246A58.644,58.644,0,0,0,170.4,282.388V229.111A58.642,58.642,0,0,0,111.824,170.5H58.578a58.206,58.206,0,0,0-26.629,6.426V122.547A90.655,90.655,0,0,1,122.477,31.968Zm-63.9,170.5h53.246a26.674,26.674,0,0,1,26.629,26.644v53.277a26.676,26.676,0,0,1-26.629,26.644H58.578a26.674,26.674,0,0,1-26.629-26.644V229.111A26.671,26.671,0,0,1,58.578,202.467ZM367.426,170.5h-53.25a58.2,58.2,0,0,0-26.625,6.425V122.547a90.654,90.654,0,0,1,90.527-90.579h31.949a15.984,15.984,0,0,0,0-31.967H378.078C310.535,0,255.6,54.989,255.6,122.547V282.388A58.641,58.641,0,0,0,314.176,341h53.25A58.642,58.642,0,0,0,426,282.388V229.111A58.64,58.64,0,0,0,367.426,170.5Zm26.625,111.888a26.673,26.673,0,0,1-26.625,26.644h-53.25a26.673,26.673,0,0,1-26.625-26.644V229.111a26.67,26.67,0,0,1,26.625-26.644h53.25a26.67,26.67,0,0,1,26.625,26.644v53.277Z"></path></svg> 